# xmcd
#
# Track frame offsets:
#	150
#	17865
#	30430
#	40882
#	60490
#	79140
#	91032
#	113587
#	127210
#	144492
#	155462
#
# Disc length: 2268 seconds
#
# Revision: 1
# Processed by: cddbd v1.5.2PL0 Copyright (c) Steve Scherf et al.
# Submitted via: audiograbber 1.83.01
#
DISCID=8408da0b
DTITLE=Jones Gang - Steam Country
DYEAR=2001
DGENRE=Country
TTITLE0=Wheels
TTITLE1=Singin the blues
TTITLE2=That'll be the day
TTITLE3=Peaceful easy feeling
TTITLE4=I swear
TTITLE5=You can depend on me
TTITLE6=Medley: Heartache tonight - Tequila sunrise - If tomorrow never comes
TTITLE7=A little more love
TTITLE8=Kick a little
TTITLE9=The first step
TTITLE10=I love it, I like it
EXTD=
EXTT0=
EXTT1=
EXTT2=
EXTT3=
EXTT4=
EXTT5=
EXTT6=
EXTT7=
EXTT8=
EXTT9=
EXTT10=
PLAYORDER=
